<mxfile host="Electron" modified="2024-07-18T18:00:36.227Z" agent="Mozilla/5.0 (Windows NT 10.0; Win64; x64) AppleWebKit/537.36 (KHTML, like Gecko) draw.io/24.2.5 Chrome/120.0.6099.109 Electron/28.1.0 Safari/537.36" etag="cEiauWE6NMoP76o9UBa1" version="24.2.5" type="device">
  <diagram name="Page-1" id="0-UJdMKddDQj0jb908l7">
    <mxGraphModel dx="3804" dy="1214" grid="1" gridSize="10" guides="1" tooltips="1" connect="1" arrows="1" fold="1" page="1" pageScale="1" pageWidth="850" pageHeight="1100" math="0" shadow="0">
      <root>
        <mxCell id="0" />
        <mxCell id="1" parent="0" />
        <mxCell id="q7O9dfnEodf6D-2qyuPh-7" style="edgeStyle=orthogonalEdgeStyle;rounded=0;orthogonalLoop=1;jettySize=auto;html=1;" parent="1" source="q7O9dfnEodf6D-2qyuPh-1" target="q7O9dfnEodf6D-2qyuPh-2" edge="1">
          <mxGeometry relative="1" as="geometry" />
        </mxCell>
        <mxCell id="q7O9dfnEodf6D-2qyuPh-20" value="&lt;span style=&quot;font-size: 12px; background-color: rgb(251, 251, 251);&quot;&gt;&amp;nbsp;1. Users submits data&amp;nbsp;&lt;/span&gt;" style="edgeLabel;html=1;align=center;verticalAlign=middle;resizable=0;points=[];" parent="q7O9dfnEodf6D-2qyuPh-7" vertex="1" connectable="0">
          <mxGeometry x="-0.0544" y="-1" relative="1" as="geometry">
            <mxPoint as="offset" />
          </mxGeometry>
        </mxCell>
        <mxCell id="q7O9dfnEodf6D-2qyuPh-1" value="User" style="sketch=0;outlineConnect=0;fontColor=#232F3E;gradientColor=none;fillColor=#232F3D;strokeColor=none;dashed=0;verticalLabelPosition=bottom;verticalAlign=top;align=center;html=1;fontSize=12;fontStyle=0;aspect=fixed;pointerEvents=1;shape=mxgraph.aws4.user;" parent="1" vertex="1">
          <mxGeometry x="-78" y="511" width="78" height="78" as="geometry" />
        </mxCell>
        <mxCell id="q7O9dfnEodf6D-2qyuPh-9" style="edgeStyle=orthogonalEdgeStyle;rounded=0;orthogonalLoop=1;jettySize=auto;html=1;entryX=0;entryY=0.5;entryDx=0;entryDy=0;" parent="1" source="q7O9dfnEodf6D-2qyuPh-2" target="q7O9dfnEodf6D-2qyuPh-4" edge="1">
          <mxGeometry relative="1" as="geometry">
            <Array as="points">
              <mxPoint x="259" y="425" />
            </Array>
          </mxGeometry>
        </mxCell>
        <mxCell id="iWhf94hsDri4JLoeUjZE-1" value="&lt;span style=&quot;font-size: 12px; background-color: rgb(251, 251, 251);&quot;&gt;&amp;nbsp;2. Data is sent to a command microservice&amp;nbsp;&lt;/span&gt;" style="edgeLabel;html=1;align=center;verticalAlign=middle;resizable=0;points=[];" parent="q7O9dfnEodf6D-2qyuPh-9" vertex="1" connectable="0">
          <mxGeometry x="0.1256" y="-3" relative="1" as="geometry">
            <mxPoint x="14" y="-3" as="offset" />
          </mxGeometry>
        </mxCell>
        <mxCell id="q7O9dfnEodf6D-2qyuPh-10" style="edgeStyle=orthogonalEdgeStyle;rounded=0;orthogonalLoop=1;jettySize=auto;html=1;entryX=0;entryY=0.5;entryDx=0;entryDy=0;" parent="1" source="q7O9dfnEodf6D-2qyuPh-2" target="q7O9dfnEodf6D-2qyuPh-8" edge="1">
          <mxGeometry relative="1" as="geometry">
            <Array as="points">
              <mxPoint x="259" y="675" />
            </Array>
          </mxGeometry>
        </mxCell>
        <mxCell id="iWhf94hsDri4JLoeUjZE-4" value="&amp;nbsp;5. Query fetches the data from the read database&amp;nbsp;" style="edgeLabel;html=1;align=center;verticalAlign=middle;resizable=0;points=[];" parent="q7O9dfnEodf6D-2qyuPh-10" vertex="1" connectable="0">
          <mxGeometry x="0.0955" y="-1" relative="1" as="geometry">
            <mxPoint x="20" y="-1" as="offset" />
          </mxGeometry>
        </mxCell>
        <mxCell id="q7O9dfnEodf6D-2qyuPh-2" value="Application" style="sketch=0;outlineConnect=0;fontColor=#232F3E;gradientColor=none;fillColor=#232F3D;strokeColor=none;dashed=0;verticalLabelPosition=middle;verticalAlign=middle;align=left;html=1;fontSize=12;fontStyle=0;aspect=fixed;pointerEvents=1;shape=mxgraph.aws4.client;labelPosition=right;spacingLeft=5;" parent="1" vertex="1">
          <mxGeometry x="220" y="512" width="78" height="76" as="geometry" />
        </mxCell>
        <mxCell id="q7O9dfnEodf6D-2qyuPh-4" value="Command" style="rounded=0;whiteSpace=wrap;html=1;fillColor=#dae8fc;strokeColor=#6c8ebf;" parent="1" vertex="1">
          <mxGeometry x="570" y="410" width="120" height="30" as="geometry" />
        </mxCell>
        <mxCell id="q7O9dfnEodf6D-2qyuPh-5" value="Write Database" style="shape=cylinder3;whiteSpace=wrap;html=1;boundedLbl=1;backgroundOutline=1;size=15;fillColor=#dae8fc;strokeColor=#6c8ebf;" parent="1" vertex="1">
          <mxGeometry x="870" y="385" width="60" height="80" as="geometry" />
        </mxCell>
        <mxCell id="q7O9dfnEodf6D-2qyuPh-6" value="Read Database" style="shape=cylinder3;whiteSpace=wrap;html=1;boundedLbl=1;backgroundOutline=1;size=15;fillColor=#fff2cc;strokeColor=#d6b656;" parent="1" vertex="1">
          <mxGeometry x="870" y="635" width="60" height="80" as="geometry" />
        </mxCell>
        <mxCell id="q7O9dfnEodf6D-2qyuPh-12" style="edgeStyle=orthogonalEdgeStyle;rounded=0;orthogonalLoop=1;jettySize=auto;html=1;" parent="1" source="q7O9dfnEodf6D-2qyuPh-8" target="q7O9dfnEodf6D-2qyuPh-6" edge="1">
          <mxGeometry relative="1" as="geometry" />
        </mxCell>
        <mxCell id="q7O9dfnEodf6D-2qyuPh-8" value="Query" style="rounded=0;whiteSpace=wrap;html=1;fillColor=#d5e8d4;strokeColor=#82b366;" parent="1" vertex="1">
          <mxGeometry x="570" y="660" width="120" height="30" as="geometry" />
        </mxCell>
        <mxCell id="q7O9dfnEodf6D-2qyuPh-11" value="&amp;nbsp;3. Database is updated&amp;nbsp;" style="edgeStyle=orthogonalEdgeStyle;rounded=0;orthogonalLoop=1;jettySize=auto;html=1;entryX=0;entryY=0.5;entryDx=0;entryDy=0;entryPerimeter=0;" parent="1" source="q7O9dfnEodf6D-2qyuPh-4" target="q7O9dfnEodf6D-2qyuPh-5" edge="1">
          <mxGeometry relative="1" as="geometry" />
        </mxCell>
        <mxCell id="q7O9dfnEodf6D-2qyuPh-13" value="Tables or Event Sourcing" style="text;html=1;align=center;verticalAlign=middle;resizable=0;points=[];autosize=1;strokeColor=none;fillColor=none;fontStyle=1" parent="1" vertex="1">
          <mxGeometry x="930" y="410" width="160" height="30" as="geometry" />
        </mxCell>
        <mxCell id="q7O9dfnEodf6D-2qyuPh-14" value="Materialized View" style="text;html=1;align=center;verticalAlign=middle;resizable=0;points=[];autosize=1;strokeColor=none;fillColor=none;fontStyle=1" parent="1" vertex="1">
          <mxGeometry x="930" y="660" width="120" height="30" as="geometry" />
        </mxCell>
        <mxCell id="q7O9dfnEodf6D-2qyuPh-18" style="edgeStyle=orthogonalEdgeStyle;rounded=0;orthogonalLoop=1;jettySize=auto;html=1;dashed=1;" parent="1" source="q7O9dfnEodf6D-2qyuPh-15" target="q7O9dfnEodf6D-2qyuPh-6" edge="1">
          <mxGeometry relative="1" as="geometry" />
        </mxCell>
        <mxCell id="q7O9dfnEodf6D-2qyuPh-15" value="Event Bus" style="shape=cylinder3;whiteSpace=wrap;html=1;boundedLbl=1;backgroundOutline=1;size=15;fillColor=#f8cecc;strokeColor=#b85450;" parent="1" vertex="1">
          <mxGeometry x="870" y="510" width="60" height="80" as="geometry" />
        </mxCell>
        <mxCell id="q7O9dfnEodf6D-2qyuPh-16" value="Eventual Consistency" style="text;html=1;align=center;verticalAlign=middle;resizable=0;points=[];autosize=1;strokeColor=none;fillColor=none;fontStyle=1" parent="1" vertex="1">
          <mxGeometry x="930" y="535" width="140" height="30" as="geometry" />
        </mxCell>
        <mxCell id="q7O9dfnEodf6D-2qyuPh-17" style="edgeStyle=orthogonalEdgeStyle;rounded=0;orthogonalLoop=1;jettySize=auto;html=1;entryX=0.5;entryY=0;entryDx=0;entryDy=0;entryPerimeter=0;dashed=1;" parent="1" source="q7O9dfnEodf6D-2qyuPh-5" target="q7O9dfnEodf6D-2qyuPh-15" edge="1">
          <mxGeometry relative="1" as="geometry" />
        </mxCell>
        <mxCell id="iWhf94hsDri4JLoeUjZE-3" value="&amp;nbsp;4. Command microservice&lt;div&gt;publishes an &quot;event&quot; to the Event Bus&lt;/div&gt;" style="edgeStyle=orthogonalEdgeStyle;rounded=0;orthogonalLoop=1;jettySize=auto;html=1;dashed=1;" parent="1" source="q7O9dfnEodf6D-2qyuPh-4" edge="1">
          <mxGeometry x="0.2674" relative="1" as="geometry">
            <mxPoint x="870" y="560" as="targetPoint" />
            <Array as="points">
              <mxPoint x="630" y="560" />
              <mxPoint x="870" y="560" />
            </Array>
            <mxPoint as="offset" />
          </mxGeometry>
        </mxCell>
        <mxCell id="v71upXyXuF1V1uqCtJ8q-1" value="" style="shape=image;verticalLabelPosition=bottom;labelBackgroundColor=default;verticalAlign=top;aspect=fixed;imageAspect=0;image=https://cdn.worldvectorlogo.com/logos/elasticsearch.svg;" vertex="1" parent="1">
          <mxGeometry x="920" y="700" width="50" height="50" as="geometry" />
        </mxCell>
      </root>
    </mxGraphModel>
  </diagram>
</mxfile>
